<?xml version="1.0" encoding="utf-8"?>
<!-- Generator: Adobe Illustrator 24.1.2, SVG Export Plug-In . SVG Version: 6.00 Build 0)  -->
<svg version="1.1" id="图层_1" xmlns="http://www.w3.org/2000/svg" xmlns:xlink="http://www.w3.org/1999/xlink" x="0px" y="0px"
	 viewBox="0 0 796.46 316" style="enable-background:new 0 0 796.46 316;" xml:space="preserve">
<style type="text/css">
	.st0{fill:#E60013;}
	.st1{fill:none;}
	.st2{fill:url(#XMLID_2_);}
	.st3{fill:url(#XMLID_3_);}
	.st4{fill:url(#XMLID_4_);}
	.st5{fill:url(#XMLID_5_);}
	.st6{fill:url(#XMLID_6_);}
	.st7{fill:url(#XMLID_7_);}
	.st8{fill:url(#XMLID_8_);}
	.st9{fill-rule:evenodd;clip-rule:evenodd;fill:#E60013;}
	.st10{fill:none;stroke:#000000;stroke-miterlimit:10;}
</style>
<g id="XMLID_46_">
	<g id="XMLID_272_">
		<path id="XMLID_325_" class="st0" d="M591.19,108.89c-9.95-1.4-21.02-2.74-32.78-4.03c-43.74-29.63-95.48-60.17-152.51-80.23
			c-66.42-23.36-164.14-43.26-248.72,5.05C114.93,53.8,88.7,87.42,70.73,117.59C49.1,125,29.19,134.17,18.55,144.98
			c-31.27,31.76-20.87,77.43,15.17,64.76c17.3-6.08,31.89-32.32,49.3-62.69c30.12-6.59,57.33-6.78,70.81-6.31
			c3.4,0.12,6.43,1.94,8.33,4.76c8.96,13.36,24.38,22.01,41.8,21.44c24.67-0.81,45.12-20.62,46.66-45.25
			c1.75-28.12-20.54-51.48-48.28-51.48c-16.8,0-31.6,8.57-40.27,21.58c-1.66,2.49-4.2,4.25-7.15,4.78
			c-9.04,1.61-27.05,5.06-47.37,10.21c13.61-20.19,29.43-39.2,49.01-52.59c62.53-42.77,180.78-13.14,268.83,21.55
			c18.26,7.19,34.93,14.42,50.44,21.63c-44.76-3.44-86.64-5.93-107.41-7.09c-2.92-0.16-5.59-1.54-7.54-3.72
			c-8.85-9.91-21.69-16.18-35.91-16.19c-17.24-0.01-32.36,9.04-40.89,22.64c-0.43,0.68,0.09,1.58,0.89,1.58h34.51
			c2.68,0,5.15,1.43,6.49,3.75l9.52,16.5c1.34,2.32,1.34,5.18,0,7.5l-9.52,16.49c-1.34,2.32-3.81,3.75-6.49,3.75h-34.51
			c-0.81,0-1.32,0.89-0.89,1.58c8.52,13.6,23.64,22.64,40.87,22.64c17.76,0,33.27-9.61,41.63-23.91c2.01-3.44,5.69-5.55,9.68-5.43
			c37.07,1.09,116.37,3.86,193.16,9.32c17.93,10.26,35.14,20.21,52.88,29.7c57.19,30.6,162.36,55.36,173.51,14.67
			C806.96,150.47,672.32,120.28,591.19,108.89z M33.75,184.87C15.82,204.79,1.63,176.38,49.8,157
			C43.58,169.56,38.59,179.49,33.75,184.87z M176.7,114.86l9.57-16.58c1.34-2.32,3.81-3.75,6.49-3.75h19.15
			c2.68,0,5.15,1.43,6.49,3.75l9.57,16.58c1.34,2.32,1.34,5.18,0,7.5l-9.57,16.58c-1.34,2.32-3.81,3.75-6.49,3.75h-19.15
			c-2.68,0-5.15-1.43-6.49-3.75l-9.57-16.58C175.36,120.03,175.36,117.17,176.7,114.86z M623.1,151.22
			c-0.04-0.03-0.08-0.06-0.12-0.09c60.42,5.61,111.88,13.23,129.05,23.42C802.53,204.52,690.45,200.98,623.1,151.22z"/>
		<path id="XMLID_324_" class="st1" d="M33.75,184.87c4.85-5.38,9.82-15.3,16.06-27.88C1.62,176.37,15.81,204.79,33.75,184.87z"/>
		<linearGradient id="XMLID_2_" gradientUnits="userSpaceOnUse" x1="493.552" y1="105.6372" x2="470.7995" y2="147.2641">
			<stop  offset="0.0199" style="stop-color:#B3B3B3"/>
			<stop  offset="0.4784" style="stop-color:#EAEAEA;stop-opacity:0.5216"/>
			<stop  offset="0.8231" style="stop-color:#FFFFFF;stop-opacity:0"/>
		</linearGradient>
		<path id="XMLID_323_" class="st2" d="M434.56,139.51c38.84,1.56,87.33,3.9,134.85,7.28c-27.88-15.95-57.51-32.62-93.58-49.39
			c-19.9-1.53-39.24-2.87-56.4-3.99C381.89,90.95,387.59,137.62,434.56,139.51z"/>
		<path id="XMLID_322_" class="st1" d="M22.9,173.93l10.49-1.61L22.9,173.93c-0.04,0.04-0.07,0.08-0.11,0.12
			c-0.58,0.66-3.48,4.05-5.23,8.45c-3.02,9.39,5.98,13.71,16.18,2.37c4.85-5.38,9.82-15.3,16.06-27.88L43.8,163l6.01-6.01
			C36.48,162.35,27.92,168.4,22.9,173.93z"/>
		<path id="XMLID_321_" class="st1" d="M15.99,184.08c1.74-4.4,4.64-7.79,5.23-8.45C18.47,178.68,16.8,181.56,15.99,184.08z"/>
		<path id="XMLID_320_" class="st0" d="M21.32,175.51c0,0-0.04,0.04-0.1,0.12C21.25,175.59,21.28,175.55,21.32,175.51L21.32,175.51z
			"/>
		<linearGradient id="XMLID_3_" gradientUnits="userSpaceOnUse" x1="15.9615" y1="177.3625" x2="83.033" y2="177.3625">
			<stop  offset="0.0199" style="stop-color:#B3B3B3"/>
			<stop  offset="0.4784" style="stop-color:#EAEAEA;stop-opacity:0.5216"/>
			<stop  offset="0.8231" style="stop-color:#FFFFFF;stop-opacity:0"/>
		</linearGradient>
		<path id="XMLID_319_" class="st3" d="M83.03,147.05c-9.42,2.06-19.12,4.75-28.76,8.24c-1.54,0.56-3.03,1.13-4.46,1.7
			c-6.24,12.58-11.21,22.5-16.06,27.88c-10.2,11.34-19.2,7.02-16.18-2.37c-3.57,8.09-3.26,31.48,23.26,23.56l0,0
			C55.16,196.26,68.05,173.18,83.03,147.05z"/>
		<linearGradient id="XMLID_4_" gradientUnits="userSpaceOnUse" x1="46.2063" y1="155.7397" x2="52.2512" y2="182.7527">
			<stop  offset="0.0199" style="stop-color:#B3B3B3"/>
			<stop  offset="0.4784" style="stop-color:#EAEAEA;stop-opacity:0.5216"/>
			<stop  offset="0.8231" style="stop-color:#FFFFFF;stop-opacity:0"/>
		</linearGradient>
		<path id="XMLID_318_" class="st4" d="M83.03,147.05c-9.42,2.06-19.12,4.75-28.76,8.24c-1.54,0.56-3.03,1.13-4.46,1.7
			c-6.24,12.58-11.21,22.5-16.06,27.88c-10.2,11.34-19.2,7.02-16.18-2.37c-3.57,8.09-3.26,31.48,23.26,23.56l0,0
			C55.16,196.26,68.05,173.18,83.03,147.05z"/>
		<linearGradient id="XMLID_5_" gradientUnits="userSpaceOnUse" x1="104.3314" y1="105.5381" x2="96.0197" y2="72.8581">
			<stop  offset="0.0199" style="stop-color:#B3B3B3"/>
			<stop  offset="0.4784" style="stop-color:#EAEAEA;stop-opacity:0.5216"/>
			<stop  offset="0.8231" style="stop-color:#FFFFFF;stop-opacity:0"/>
		</linearGradient>
		<path id="XMLID_317_" class="st5" d="M109.67,66.32C93.25,83,80.72,100.83,70.73,117.59c12.17-4.17,24.89-7.78,36.81-10.8
			c7.28-10.8,15.2-21.27,23.99-30.71C136.43,70.82,122.8,52.99,109.67,66.32z"/>
		<linearGradient id="XMLID_6_" gradientUnits="userSpaceOnUse" x1="242.3108" y1="19.3003" x2="272.387" y2="71.4091">
			<stop  offset="0.0199" style="stop-color:#B3B3B3"/>
			<stop  offset="0.4784" style="stop-color:#EAEAEA;stop-opacity:0.5216"/>
			<stop  offset="0.8231" style="stop-color:#FFFFFF;stop-opacity:0"/>
		</linearGradient>
		<path id="XMLID_316_" class="st6" d="M351.92,9c0,0-0.01,0-0.01,0C229.22-17.31,147.07,61.35,147.07,61.35l0,0
			c3.06-2.52,6.21-4.91,9.48-7.14c37.85-25.9,96.14-25.25,155.78-13.01C351.19,49.17,371.36,13.36,351.92,9z"/>
		<linearGradient id="XMLID_7_" gradientUnits="userSpaceOnUse" x1="613.7619" y1="150.4514" x2="643.7454" y2="114.3068">
			<stop  offset="0.0199" style="stop-color:#B3B3B3"/>
			<stop  offset="0.4784" style="stop-color:#EAEAEA;stop-opacity:0.5216"/>
			<stop  offset="0.8231" style="stop-color:#FFFFFF;stop-opacity:0"/>
		</linearGradient>
		<path id="XMLID_315_" class="st7" d="M591.19,108.89c-9.95-1.4-21.02-2.74-32.77-4.03c24.11,16.33,45.78,32.39,64.56,46.26h0
			c17.72,1.65,34.67,3.46,50.21,5.47c27.18,3.51,68.24-16.73,2.37-32.08C646.24,117.69,616.18,112.4,591.19,108.89z"/>
		<linearGradient id="XMLID_8_" gradientUnits="userSpaceOnUse" x1="736.9541" y1="214.8903" x2="719.1973" y2="191.1832">
			<stop  offset="0.0199" style="stop-color:#B3B3B3"/>
			<stop  offset="0.4784" style="stop-color:#EAEAEA;stop-opacity:0.5216"/>
			<stop  offset="0.8231" style="stop-color:#FFFFFF;stop-opacity:0"/>
		</linearGradient>
		<path id="XMLID_314_" class="st8" d="M762.8,182.87c9.56,12.9-21.51,14.5-61.45,4.16c-25.64-6.64-41.2,6.99-19.65,13.47
			c13.19,3.96,26.57,7.17,39.32,9.26C734.27,211.93,780.08,206.19,762.8,182.87z"/>
	</g>
	<g id="XMLID_52_">
		<g id="XMLID_156_">
			<path id="XMLID_266_" d="M364.25,276.08l-13.28,25.49l0.19-25.49h-15.59l-10.4,39.23h8.09c0.74,0,1.4-0.5,1.59-1.22l8.44-31.85
				l-0.33,33.07h8.56l17.32-33.25l-8.82,33.25h8.09c0.74,0,1.39-0.5,1.59-1.22l10.08-38.01H364.25z"/>
			<path id="XMLID_265_" d="M388.92,276.08l-10.4,39.23h10.35c0.74,0,1.39-0.5,1.59-1.22l10.08-38.01H388.92z"/>
			<path id="XMLID_264_" d="M421.74,276.08h-11.59l-10.4,39.23h29.6c0.74,0,1.4-0.5,1.59-1.22l2.09-7.88h-19.28L421.74,276.08z"/>
			<path id="XMLID_263_" d="M477.97,282.66l1.74-6.57h-32.34l-10.4,39.23h31.67c0.74,0,1.39-0.5,1.59-1.22l1.88-7.09h-21.32
				l2.29-8.62h15.62c0.74,0,1.4-0.5,1.59-1.22l1.64-6.19h-16.88l1.88-7.09h19.46C477.13,283.88,477.78,283.38,477.97,282.66z"/>
			<path id="XMLID_216_" d="M503.75,275.4c-4.1,0-7.5,0.52-10.11,1.54c-2.6,1.02-4.75,2.44-6.38,4.21
				c-1.63,1.77-2.72,3.68-3.25,5.67c-0.8,3.03-0.36,5.44,1.36,7.38c1.71,1.95,5.12,3.55,10.11,4.74c3.22,0.75,5.16,1.55,5.91,2.44
				c0.77,0.91,1.01,1.96,0.7,3.12c-0.31,1.17-1.1,2.21-2.34,3.08c-1.23,0.87-2.79,1.31-4.62,1.31c-2.5,0-4.23-0.88-5.14-2.63
				c-0.44-0.85-0.62-2-0.54-3.43h-11.16c-0.62,3.78-0.02,6.94,1.78,9.39c1.84,2.5,6.14,3.78,12.78,3.78c3.81,0,7.15-0.56,9.93-1.65
				c2.78-1.09,5.17-2.72,7.11-4.83c1.94-2.11,3.26-4.44,3.92-6.93c0.56-2.1,0.55-4.02-0.02-5.7c-0.56-1.67-1.83-3.09-3.76-4.23
				c-1.98-1.17-5.53-2.34-10.56-3.49c-2.19-0.48-3.45-0.99-3.96-1.59c-0.54-0.59-0.72-1.29-0.52-2.05c0.25-0.96,0.87-1.77,1.83-2.43
				c0.95-0.65,2.19-0.98,3.7-0.98c1.84,0,3.2,0.45,4.05,1.34c0.68,0.72,1.03,1.77,1.05,3.13h11.09c0.48-3.83-0.29-6.66-2.3-8.42
				C512.34,276.33,508.75,275.4,503.75,275.4z"/>
			<path id="XMLID_166_" d="M645.94,276.15l-13.24,25.41l0.19-25.41h-15.53l-10.37,39.11h8.06c0.74,0,1.4-0.5,1.59-1.22l8.42-31.75
				l-0.33,32.97h8.53l17.27-33.15l-8.79,33.15h8.06c0.74,0,1.39-0.5,1.59-1.22l10.05-37.89H645.94z"/>
			<path id="XMLID_165_" d="M670.52,276.15l-10.37,39.11h10.31c0.74,0,1.39-0.5,1.59-1.22l10.05-37.89H670.52z"/>
			<path id="XMLID_164_" d="M703.24,276.15H691.7l-10.37,39.11h29.5c0.74,0,1.4-0.5,1.59-1.22l2.08-7.85h-19.22L703.24,276.15z"/>
			<path id="XMLID_163_" d="M734.48,298.37h15.57c0.74,0,1.39-0.5,1.59-1.22l1.64-6.17h-16.83l1.88-7.07h20.66l2.06-7.77H728.8
				l-10.37,39.11H750c0.74,0,1.4-0.5,1.59-1.22l1.87-7.06H732.2L734.48,298.37z"/>
			<path id="XMLID_162_" d="M599.76,292.66c-1.97-1.16-5.51-2.33-10.53-3.48c-2.18-0.48-3.44-0.99-3.94-1.59
				c-0.54-0.59-0.72-1.28-0.52-2.04c0.25-0.95,0.87-1.77,1.82-2.43c0.94-0.65,2.18-0.98,3.68-0.98c1.84,0,3.19,0.45,4.04,1.34
				c0.67,0.71,1.03,1.76,1.05,3.12h11.05c0.48-3.82-0.29-6.64-2.29-8.39c-2.09-1.82-5.67-2.75-10.65-2.75
				c-4.08,0-7.47,0.52-10.08,1.54c-2.59,1.02-4.73,2.43-6.35,4.2c-1.62,1.77-2.71,3.67-3.23,5.65c-0.8,3.02-0.36,5.42,1.36,7.35
				c1.71,1.94,5.1,3.53,10.08,4.72c3.21,0.75,5.14,1.55,5.89,2.43c0.77,0.91,1,1.96,0.7,3.11c-0.31,1.17-1.09,2.2-2.33,3.08
				c-1.23,0.87-2.78,1.3-4.6,1.3c-2.49,0-4.22-0.88-5.12-2.62c-0.44-0.84-0.62-1.99-0.54-3.42H568.1c-0.62,3.76-0.02,6.91,1.78,9.36
				c1.84,2.5,6.12,3.76,12.74,3.76c3.79,0,7.13-0.55,9.9-1.65c2.77-1.09,5.15-2.71,7.09-4.81c1.93-2.1,3.25-4.43,3.91-6.91
				c0.55-2.09,0.55-4.01-0.02-5.69C602.95,295.22,601.68,293.8,599.76,292.66z"/>
			<path id="XMLID_161_" d="M783.37,275.47c-4.08,0-7.47,0.52-10.08,1.54c-2.59,1.02-4.73,2.43-6.36,4.2
				c-1.62,1.77-2.71,3.67-3.23,5.65c-0.8,3.02-0.36,5.42,1.36,7.35c1.71,1.94,5.1,3.53,10.08,4.72c3.21,0.75,5.14,1.55,5.89,2.43
				c0.77,0.91,1,1.96,0.7,3.11c-0.31,1.17-1.09,2.2-2.33,3.08c-1.23,0.87-2.78,1.3-4.6,1.3c-2.49,0-4.22-0.88-5.12-2.62
				c-0.44-0.84-0.62-1.99-0.54-3.42h-11.12c-0.62,3.76-0.02,6.91,1.78,9.36c1.83,2.5,6.12,3.76,12.74,3.76
				c3.79,0,7.13-0.55,9.9-1.65c2.77-1.09,5.15-2.71,7.09-4.81c1.93-2.1,3.25-4.43,3.91-6.91c0.55-2.09,0.55-4.01-0.02-5.69
				c-0.56-1.66-1.82-3.08-3.75-4.22c-1.97-1.16-5.51-2.33-10.53-3.48c-2.18-0.48-3.44-0.99-3.94-1.59
				c-0.54-0.59-0.72-1.28-0.52-2.04c0.25-0.95,0.87-1.77,1.82-2.43c0.94-0.65,2.18-0.98,3.68-0.98c1.84,0,3.19,0.45,4.04,1.34
				c0.67,0.71,1.03,1.76,1.05,3.12h11.05c0.48-3.82-0.29-6.64-2.29-8.39C791.93,276.39,788.35,275.47,783.37,275.47z"/>
			<path id="XMLID_157_" d="M556.34,304.8l0.24-0.28c0.65-0.76,1.12-1.54,1.54-2.23c0.22-0.36,0.43-0.7,0.63-1l-4.9-4.51
				c-0.61,1.01-1.27,1.98-1.97,2.9l-0.26,0.34l-0.3-0.3c-1.52-1.53-2.96-3.21-4.27-4.99l-0.25-0.34l0.36-0.2
				c2.49-1.4,4.26-2.46,5.26-3.16c0.98-0.69,1.92-1.6,2.78-2.71c0.86-1.1,1.45-2.26,1.77-3.45c0.56-2.11,0.14-3.86-1.28-5.37
				c-1.42-1.51-4.15-2.27-8.12-2.27c-3.92,0-7.09,0.82-9.43,2.45c-2.33,1.61-3.85,3.69-4.51,6.18c-0.31,1.17-0.38,2.34-0.21,3.47
				c0.18,1.14,0.71,2.51,1.58,4.06l0.18,0.33l-0.33,0.18c-0.14,0.07-13.64,7.44-9.76,15.36c2.09,4.27,5.48,6.43,10.09,6.43
				c6.84,0,14.03-4.79,14.1-4.84l0.21-0.14l0.21,0.14c0.72,0.5,1.14,0.83,2.04,1.54c0.79,0.62,1.58,1.18,2.34,1.67l6.54-5.76
				c-0.45-0.31-0.82-0.58-1.13-0.82L556.34,304.8z M541.93,285.24c0.24-0.89,0.8-1.67,1.67-2.31c0.87-0.64,1.86-0.97,2.97-0.97
				c1.15,0,2,0.32,2.53,0.94c0.53,0.63,0.68,1.41,0.45,2.31c-0.22,0.81-0.83,1.67-1.81,2.55c-0.96,0.86-2.21,1.66-3.74,2.38
				l-0.29,0.14l-0.18-0.27C542.15,287.95,541.62,286.39,541.93,285.24z M544.41,306.24c-2.67,1.43-4.97,2.16-6.83,2.16
				c-1.78,0-3.12-0.52-3.98-1.55c-0.87-1.04-1.14-2.24-0.78-3.56c0.22-0.83,0.68-1.63,1.36-2.37c0.67-0.73,1.82-1.57,3.52-2.58
				l0.28-0.16l0.2,0.25c2.5,3.15,4.63,5.58,6.32,7.22l0.36,0.35L544.41,306.24z"/>
		</g>
		<g id="XMLID_53_">
			<path id="XMLID_155_" d="M415.07,258.88c0.74,0,1.39-0.5,1.59-1.22l1.95-7.36h-21.94l2.35-8.85h16.11c0.74,0,1.39-0.5,1.59-1.22
				l1.71-6.43h-17.37l1.93-7.28h20.07c0.74,0,1.39-0.5,1.59-1.22l1.81-6.82h-33.3l-10.71,40.4H415.07z"/>
			<path id="XMLID_154_" d="M492.25,258.88l25.71-40.4h-12.01L488.44,249l-1.38-28.96c-0.04-0.88-0.76-1.56-1.64-1.56h-10.96
				l4.54,40.4H492.25z"/>
			<path id="XMLID_58_" d="M544.99,258.88c0.74,0,1.39-0.5,1.59-1.22l1.95-7.36h-21.94l2.35-8.85h16.11c0.74,0,1.39-0.5,1.59-1.22
				l1.7-6.43h-17.37l1.93-7.28h20.06c0.74,0,1.39-0.5,1.59-1.22l1.81-6.82h-33.3l-10.71,40.4H544.99z"/>
			<path id="XMLID_57_" d="M357.16,259.58c3.92,0,7.36-0.57,10.23-1.7c2.86-1.12,5.32-2.8,7.32-4.97c2-2.17,3.36-4.57,4.04-7.14
				c0.57-2.16,0.57-4.14-0.02-5.88c-0.58-1.72-1.88-3.19-3.88-4.36c-2.04-1.2-5.69-2.41-10.87-3.59c-2.25-0.5-3.54-1.02-4.07-1.64
				c-0.56-0.61-0.74-1.32-0.53-2.1c0.26-0.98,0.89-1.82,1.88-2.5c0.97-0.67,2.25-1,3.8-1c1.89,0,3.29,0.46,4.16,1.38
				c0.7,0.74,1.06,1.82,1.08,3.22h11.43c0.5-3.95-0.3-6.87-2.37-8.68c-2.16-1.88-5.86-2.84-11-2.84c-4.22,0-7.72,0.53-10.41,1.59
				c-2.68,1.05-4.89,2.51-6.57,4.34c-1.68,1.83-2.8,3.79-3.34,5.84c-0.83,3.12-0.37,5.61,1.41,7.6c1.77,2.01,5.27,3.65,10.41,4.88
				c3.31,0.77,5.3,1.59,6.07,2.51c0.79,0.94,1.03,2.01,0.72,3.2c-0.32,1.2-1.13,2.27-2.4,3.17c-1.27,0.89-2.86,1.34-4.75,1.34
				c-2.57,0-4.35-0.91-5.28-2.7c-0.45-0.87-0.64-2.06-0.56-3.53h-11.51c-0.64,3.89-0.02,7.15,1.84,9.68
				C345.89,258.27,350.32,259.58,357.16,259.58z"/>
			<path id="XMLID_54_" d="M441.95,242.18c1.24,0,2.29,0.35,3.1,1.04c0.61,0.55,1.13,1.64,1.58,3.36l3.39,12.3h13.61l-2.88-11.46
				c-0.04-0.16-0.1-0.35-0.17-0.54c-0.49-1.61-1.2-2.89-2.13-3.83c-0.06-0.07-0.11-0.11-0.15-0.16c-1.39-1.3-2.68-1.42-2.69-1.42
				l-2.47-0.21l2.43-0.52c1.96-0.42,3.58-0.96,4.8-1.6c1.93-1,3.6-2.33,4.97-3.94c1.37-1.61,2.36-3.54,2.95-5.76
				c0.67-2.52,0.63-4.69-0.12-6.42c-0.74-1.72-2.03-2.91-3.81-3.54c-1.85-0.66-4.75-0.99-8.62-0.99h-20.9l-10.71,40.4h10.74
				c0.74,0,1.39-0.5,1.59-1.22l4.1-15.48H441.95z M444.82,226.05h5.87c2.45,0,4,0.39,4.73,1.19c0.74,0.81,0.92,1.95,0.54,3.4
				c-0.25,0.96-0.77,1.82-1.53,2.56c-0.91,0.87-1.72,1.36-2.57,1.52c-1.79,0.38-3.03,0.44-3.61,0.44h-5.84L444.82,226.05z"/>
		</g>
	</g>
	<g id="XMLID_48_">
		<path id="XMLID_51_" class="st9" d="M76.22,232.92c-7.19,0-14.38-0.01-21.58-0.02c-1.59,0-1.97,0.12-1.97,2.01v44.05
			c0,2.98-2.7,6.34-6.61,6.38l-13.61,0.15c-3.73,0.04-7.27-2.9-7.27-7.15c0-1.23,0-3.08,0-4.31c0-0.85-0.23-1.31-1.27-1.31
			c-7.08,0-15.58,0-22.67,0c-0.95,0-1.24,0.38-1.24,1.4v5.51c0,10.12,9.24,21.13,22,21.13h33.07c13.45,0,23.04-9.9,23.04-22.31
			c0-14.51,0-29.03,0-43.54C78.12,233.22,77.81,232.92,76.22,232.92L76.22,232.92z"/>
		<path id="XMLID_50_" class="st9" d="M229.95,231.41c20.8,0,38.48,9.76,45.23,23.38c1.27,2.56-0.47,2.63-1.93,2.63
			c-8.64,0-15.68,0-24.45,0c-1.4,0-2.17-0.59-2.98-1.59c-3.62-4.49-9.38-7.38-15.86-7.38c-10.95,0-19.82,8.26-19.82,18.44
			c0,10.18,8.88,18.44,19.82,18.44c6.41,0,12.11-2.83,15.73-7.23c0.89-1.08,1.57-1.75,3.12-1.75c19.62,0,20.49,0,24.61,0
			c1.72,0,2.83,0.46,1.88,2.42c-6.63,13.75-24.43,23.6-45.34,23.6c-26.57,0-48.11-15.89-48.11-35.48S203.38,231.41,229.95,231.41
			L229.95,231.41z"/>
		<path id="XMLID_49_" class="st9" d="M130.97,255.91l-26.32,44.06c-0.5,0.87-0.6,0.87-1.41,0.87H79.72c-1,0-1.51-0.44-0.8-1.85
			L117,236.38c1.59-2.62,2.56-3.2,5.16-3.2c6.63,0,13.63,0,20.16,0c3.03,0,3.57,0.25,5.23,3l37.6,62.16
			c1.41,2.51,1.51,2.51-1.91,2.51h-20.12c-2.71,0-3.13-0.53-4.11-2.18l-5.39-9.12h-33.81c-2.11,0-2.91,0.33-2.01-1.52l6.84-11.68
			c0.91-1.85,1.21-1.74,3.52-1.74h16.46l-10.92-18.69C132.89,254.17,131.78,254.28,130.97,255.91L130.97,255.91z"/>
	</g>
	<line id="XMLID_47_" class="st10" x1="300.41" y1="217.78" x2="300.41" y2="316"/>
</g>
</svg>
