<svg xmlns="http://www.w3.org/2000/svg" viewBox="0 0 240.24 155.23"><defs><style>.cls-1{fill:#e50930;}.cls-2{fill:#e8e8e8;}</style></defs><g id="Слой_2" data-name="Слой 2"><g id="Слой_1-2" data-name="Слой 1"><g id="лого"><path class="cls-1" d="M151.19,124c4.36-3,8-8.58,8-8.58l8,5.27a76,76,0,0,0,6.12-11l-9.44-4.26c3.16-4.21,4.77-10.68,4.77-10.68l9.13,2.35A77.38,77.38,0,0,0,180,83.74L169.45,83c1.51-5,.79-11.67.79-11.67l9.66-1a76.7,76.7,0,0,0-2-11.61l-10.25,2.66c-.18-5.27-3-11.31-3-11.31l8.85-4a77.21,77.21,0,0,0-6.34-11.49l-8.75,5.93c-1.94-4.9-6.61-9.65-6.61-9.65l7-6.74a77.28,77.28,0,0,0-10-8.82l-6.23,8.54c-3.48-4-9.47-6.86-9.47-6.86l4.3-8.72A77,77,0,0,0,125.74,3.5l-3.07,9.86c-4.57-2.63-11.18-3.44-11.18-3.44L112.7.65a77.62,77.62,0,1,0-10.07,154.58c5,0,11.84-1.14,10.74-1.27L112,143.45c5.25.46,11.59-1.58,11.59-1.58l3,9.59c6.74-2.19,13.18-5.76,11-5.25l-4.84-9.42c5.1-1.33,10.38-5.38,10.38-5.38l6.22,8.23a78.53,78.53,0,0,0,9.54-8.49Zm-48.56,6.71a53.1,53.1,0,1,1,53.1-53.1A53.1,53.1,0,0,1,102.63,130.72Z"/><path class="cls-1" d="M102.63,130.72h0a53.1,53.1,0,0,1,0-106.2h0V0h0a77.62,77.62,0,1,0,0,155.23h0Z"/><path class="cls-2" d="M120.53,138h-8.6v-8.24H89.35V81.88h12.47v38.31h3.7V81.88H118v38.31h2.54Z"/><path class="cls-2" d="M150.53,110.85H135.07v8.48a9.26,9.26,0,0,0,.39,3.43,1.49,1.49,0,0,0,1.47.77,1.79,1.79,0,0,0,1.82-1,11.07,11.07,0,0,0,.46-4v-5.17h11.32v2.9a25.58,25.58,0,0,1-.46,5.58,11.35,11.35,0,0,1-2.14,4.17,10.44,10.44,0,0,1-4.27,3.33,16.56,16.56,0,0,1-6.49,1.1,18.83,18.83,0,0,1-6.68-1.09,10.77,10.77,0,0,1-4.51-3,11,11,0,0,1-2.23-4.2,27.18,27.18,0,0,1-.62-6.66V104.08A19.39,19.39,0,0,1,124.52,96a9.53,9.53,0,0,1,4.55-4.55,16,16,0,0,1,7.27-1.59,16.31,16.31,0,0,1,8.3,1.91,10.54,10.54,0,0,1,4.58,5.06,23.78,23.78,0,0,1,1.31,8.85Zm-12-6.39V101.6a14.23,14.23,0,0,0-.33-3.93,1.28,1.28,0,0,0-1.33-.89c-.82,0-1.34.25-1.53.75a15.55,15.55,0,0,0-.3,4.07v2.86Z"/><path class="cls-2" d="M182.45,129.77H170.57V115.31h-4.28v14.46H154.43V90.54h11.86v14.1h4.28V90.54h11.88Z"/><path class="cls-2" d="M210.35,90.54v8.22h-6.82v31H191.62v-31h-6.86V90.54Z"/><path class="cls-2" d="M224.9,90.54,224.69,94a11.07,11.07,0,0,1,3.52-3.14,8.7,8.7,0,0,1,4.19-1,7.85,7.85,0,0,1,4.81,1.5,6.19,6.19,0,0,1,2.52,3.44,29.6,29.6,0,0,1,.51,6.62v16.52a31.66,31.66,0,0,1-.64,7.61,6.32,6.32,0,0,1-2.6,3.61,8.16,8.16,0,0,1-4.74,1.34,8.41,8.41,0,0,1-4.11-1,11.16,11.16,0,0,1-3.46-3.08v9H212.75V90.54ZM228.3,102a19.63,19.63,0,0,0-.27-4.4c-.18-.51-.67-.77-1.48-.77a1.45,1.45,0,0,0-1.52.89,15.67,15.67,0,0,0-.34,4.28v16.26a16.38,16.38,0,0,0,.35,4.43,1.48,1.48,0,0,0,1.54.89c.77,0,1.25-.27,1.43-.81a15.93,15.93,0,0,0,.29-4Z"/><path class="cls-2" d="M24.33,25.13,31.45,73H18.73l-.67-8.6H13.61L12.86,73H0L6.35,25.13ZM17.74,55.9q-.94-8.13-1.9-20.1Q14,49.56,13.45,55.9Z"/><path class="cls-2" d="M60.87,62.64c0,4-.87,6.73-2.61,8.17S52.72,73,46.89,73H33.21V33.76h14.1q7.23,0,10,2.4C59.1,37.75,60,40.48,60,44.35Q60,51,53.1,51.91a9.74,9.74,0,0,1,5.69,2.82,7.9,7.9,0,0,1,2.08,5.61ZM45.06,48.34c1.81,0,2.92-.23,3.32-.68A4.2,4.2,0,0,0,49,45a3.21,3.21,0,0,0-.68-2.34c-.45-.43-1.54-.65-3.25-.65ZM49,60.81V59.48c0-1.7-.23-2.75-.68-3.18s-1.54-.63-3.25-.63v9.07a5,5,0,0,0,3.16-.69C48.73,63.58,49,62.5,49,60.81Z"/><path class="cls-2" d="M88,33.76V42H81.15V73H69.24V42H62.38V33.76Z"/><path class="cls-2" d="M117.39,47.54v9.6a39.91,39.91,0,0,1-.54,7.76,10.78,10.78,0,0,1-2.27,4.61,10.29,10.29,0,0,1-4.48,3.17,17.9,17.9,0,0,1-6.28,1,22.42,22.42,0,0,1-6.71-.88,9.06,9.06,0,0,1-4.27-2.63,10.28,10.28,0,0,1-2.17-4.25,31.75,31.75,0,0,1-.65-7.5v-10a24.58,24.58,0,0,1,1.18-8.55,9.79,9.79,0,0,1,4.25-4.93,15,15,0,0,1,7.87-1.87,17.9,17.9,0,0,1,6.9,1.2,10.81,10.81,0,0,1,6.59,7.08A24.81,24.81,0,0,1,117.39,47.54Zm-12-3a13,13,0,0,0-.32-3.8,1.34,1.34,0,0,0-1.39-.78,1.4,1.4,0,0,0-1.42.78,12.3,12.3,0,0,0-.35,3.8V62.29a11.72,11.72,0,0,0,.35,3.62,1.61,1.61,0,0,0,2.79.07,9.89,9.89,0,0,0,.34-3.31Z"/></g></g></g></svg>