<svg width="24" height="24" viewBox="0 0 24 24" fill="none" xmlns="http://www.w3.org/2000/svg">
<path d="M3.32652 9.30029C3.43273 9.66444 3.58012 10.0156 3.76653 10.345L3.23548 11.0148C3.06208 11.2337 3.08158 11.5459 3.27666 11.7431L4.19137 12.6578C4.38861 12.8551 4.70074 12.8724 4.91966 12.699L5.5851 12.1723C5.92757 12.3695 6.29172 12.5234 6.67104 12.6318L6.77074 13.488C6.80326 13.7654 7.03735 13.9735 7.3148 13.9735H8.60882C8.88627 13.9735 9.12036 13.7654 9.15287 13.488L9.24825 12.6621C9.65574 12.5559 10.0459 12.3977 10.4122 12.1918L11.056 12.7011C11.2749 12.8745 11.587 12.855 11.7843 12.66L12.699 11.7453C12.8962 11.548 12.9136 11.2359 12.7402 11.017L12.2395 10.3819C12.4475 10.022 12.6101 9.63841 12.7185 9.23741L13.4901 9.14854C13.7676 9.11603 13.9757 8.88194 13.9757 8.60449V7.31047C13.9757 7.03303 13.7676 6.79893 13.4901 6.76642L12.7293 6.67755C12.6253 6.28089 12.4692 5.90157 12.2698 5.54609L12.738 4.95436C12.9114 4.73543 12.8919 4.42331 12.6968 4.22606L11.7843 3.31353C11.587 3.11628 11.2749 3.09894 11.056 3.27235L10.4816 3.72753C10.1088 3.50861 9.70993 3.34171 9.29162 3.22899L9.20492 2.48553C9.1724 2.20808 8.93831 2 8.66086 2H7.36684C7.08939 2 6.8553 2.20808 6.82279 2.48553L6.73608 3.22899C6.30691 3.34387 5.89724 3.51728 5.51576 3.74487L4.91968 3.27235C4.70076 3.09894 4.38863 3.11845 4.19139 3.31353L3.27668 4.22823C3.07944 4.42548 3.0621 4.7376 3.2355 4.95652L3.73404 5.58728C3.53462 5.94709 3.38289 6.33074 3.28319 6.72957L2.48553 6.82061C2.20808 6.85312 2 7.08721 2 7.36466V8.65868C2 8.93613 2.20808 9.17022 2.48553 9.20273L3.32652 9.30029ZM8.01491 5.79972C9.19406 5.79972 10.1543 6.75994 10.1543 7.93908C10.1543 9.11822 9.19406 10.0784 8.01491 10.0784C6.83579 10.0784 5.87555 9.11822 5.87555 7.93908C5.87555 6.75994 6.83577 5.79972 8.01491 5.79972Z" fill="black"/>
<path d="M20.8077 9.61895L20.1249 9.04238C19.9147 8.86465 19.6047 8.87332 19.4053 9.06189L19.0282 9.4152C18.7096 9.26131 18.3714 9.15293 18.0224 9.09007L17.9163 8.56986C17.8621 8.30109 17.6128 8.11468 17.3397 8.13636L16.4488 8.21222C16.1757 8.23606 15.9611 8.45932 15.9524 8.73459L15.9351 9.26347C15.5926 9.38702 15.2697 9.55609 14.9749 9.76851L14.5241 9.46939C14.2942 9.31766 13.9886 9.36101 13.8109 9.57126L13.2344 10.2584C13.0566 10.4686 13.0653 10.7786 13.2538 10.978L13.6483 11.3985C13.5118 11.7063 13.4142 12.0292 13.3579 12.3609L12.7943 12.4757C12.5256 12.5299 12.3391 12.7792 12.3608 13.0523L12.4367 13.9432C12.4605 14.2163 12.6838 14.4309 12.9591 14.4395L13.5681 14.459C13.6787 14.7495 13.8239 15.0248 13.9995 15.2827L13.6592 15.7964C13.5075 16.0262 13.5508 16.3318 13.7611 16.5095L14.4438 17.0861C14.6541 17.2638 14.964 17.2551 15.1635 17.0666L15.61 16.6482C15.9026 16.7848 16.2104 16.8867 16.5268 16.9474L16.6504 17.5586C16.7046 17.8274 16.9539 18.0138 17.227 17.9921L18.1178 17.9162C18.391 17.8924 18.6055 17.6692 18.6142 17.3939L18.6337 16.7956C18.9588 16.6807 19.2666 16.5247 19.5506 16.3318L20.0426 16.6569C20.2724 16.8086 20.578 16.7653 20.7557 16.555L21.3323 15.8723C21.51 15.662 21.5014 15.3521 21.3128 15.1526L20.9161 14.7322C21.0614 14.4244 21.1676 14.0992 21.2282 13.7654L21.7701 13.6549C22.0389 13.6007 22.2253 13.3514 22.2036 13.0783L22.1278 12.1874C22.1039 11.9143 21.8807 11.6997 21.6054 11.6911L21.0613 11.6737C20.9486 11.3573 20.7969 11.0582 20.6083 10.7807L20.9053 10.3342C21.0613 10.1045 21.018 9.79669 20.8077 9.61895ZM17.4502 14.769C16.4878 14.8514 15.6381 14.1339 15.5579 13.1715C15.4756 12.2092 16.1931 11.3595 17.1554 11.2793C18.1178 11.1969 18.9675 11.9144 19.0477 12.8767C19.1301 13.8391 18.4126 14.6888 17.4502 14.769Z" fill="black"/>
<path d="M6.44344 17.1664C6.17033 17.1945 5.96007 17.4243 5.95791 17.6996L5.9514 18.248C5.94707 18.5232 6.15082 18.7573 6.42393 18.792L6.82709 18.844C6.89428 19.089 6.98966 19.3231 7.1132 19.5442L6.8531 19.865C6.6797 20.0795 6.6927 20.3873 6.88561 20.5846L7.26927 20.9769C7.46218 21.1742 7.76997 21.1958 7.98889 21.0268L8.31183 20.7775C8.53942 20.9119 8.78004 21.0181 9.03146 21.0918L9.07481 21.508C9.10298 21.7811 9.33274 21.9913 9.60802 21.9935L10.1564 22C10.4317 22.0043 10.6658 21.8006 10.7005 21.5275L10.7503 21.133C11.0235 21.0658 11.2836 20.9639 11.5307 20.8295L11.8341 21.0744C12.0487 21.2479 12.3565 21.2348 12.5538 21.0419L12.9461 20.6583C13.1433 20.4654 13.165 20.1576 12.996 19.9387L12.764 19.6374C12.907 19.3989 13.0176 19.1453 13.0935 18.8787L13.4533 18.8419C13.7264 18.8137 13.9366 18.5839 13.9388 18.3087L13.9453 17.7602C13.9496 17.485 13.7459 17.2509 13.4728 17.2162L13.1216 17.1707C13.0544 16.9062 12.9547 16.6505 12.8247 16.412L13.0436 16.1433C13.217 15.9287 13.204 15.6209 13.0111 15.4236L12.6275 15.0313C12.4346 14.8341 12.1267 14.8124 11.9078 14.9815L11.6455 15.183C11.3985 15.0335 11.134 14.9186 10.8566 14.8406L10.8219 14.5003C10.7937 14.2271 10.564 14.0169 10.2887 14.0147L9.74026 14.0082C9.46499 14.0039 9.23089 14.2077 9.19619 14.4808L9.15284 14.8189C8.86674 14.8926 8.59147 15.0053 8.3357 15.1527L8.06475 14.9316C7.85017 14.7582 7.54236 14.7712 7.34511 14.9641L6.95062 15.35C6.75337 15.5429 6.7317 15.8507 6.90076 16.0696L7.13269 16.3687C6.9983 16.6071 6.89209 16.8607 6.82273 17.1273L6.44344 17.1664ZM9.98303 16.5464C10.7698 16.5551 11.4006 17.2032 11.3919 17.99C11.3833 18.7768 10.7351 19.4076 9.94833 19.3989C9.16151 19.3903 8.53078 18.7422 8.53942 17.9553C8.54812 17.1685 9.19621 16.5378 9.98303 16.5464Z" fill="black"/>
</svg>
