<svg width="24" height="24" viewBox="0 0 24 24" fill="none" xmlns="http://www.w3.org/2000/svg">
<path d="M17.5975 2L16.6764 2.92109L17.795 4.03966L16.8288 4.99675L19.9381 8.10604L20.8963 7.14088L22.203 8.44768L23.1241 7.52659L17.5975 2Z" fill="black"/>
<path d="M6.3219 4.04683L7.44768 2.92109L6.52659 2L1 7.52659L1.92109 8.44768L3.21968 7.14904L4.18463 8.12107L7.29757 5.00808L6.3219 4.04683Z" fill="black"/>
<path d="M12.0689 10.9276C11.7097 10.9276 11.4175 11.2198 11.4175 11.5789C11.4533 12.443 12.6846 12.4427 12.7202 11.5789C12.7202 11.2198 12.428 10.9276 12.0689 10.9276Z" fill="black"/>
<path d="M19.2333 13.1503H17.9307V10.1282L19.0204 9.03055L15.9034 5.91348L14.7729 7.03331H9.35304L8.22553 5.92238L5.10234 9.04553L6.20658 10.1578L6.21261 10.1545L6.20706 10.16V20.6974H4.90442V22H8.81232V20.6974H7.50969V18.0921H11.4176V14.8356H12.7202V18.0921H14.6742V19.3948H13.3715V20.6974H17.2794V19.3948H15.9768V17.7106L17.9308 15.7566V15.7556H19.2334C20.9617 15.6867 20.9604 13.2184 19.2333 13.1503ZM10.1149 15.4868H8.81228V14.1842H10.1149V15.4868ZM12.0689 13.5329C10.9915 13.5329 10.1149 12.6563 10.1149 11.5789C10.2223 8.98674 13.9159 8.98752 14.0228 11.5789C14.0228 12.6564 13.1463 13.5329 12.0689 13.5329Z" fill="black"/>
</svg>
