<svg xmlns="http://www.w3.org/2000/svg" viewBox="0 0 68 53.75" x="0px" y="0px"><g fill="#000000" fill-rule="evenodd" transform="matrix(-1 0 0 1 68 0)"><path d="M21 36C21 32.1340068 17.8659932 29 14 29 10.1340068 29 7 32.1340068 7 36 7 39.8659932 10.1340068 43 14 43 17.8659932 43 21 39.8659932 21 36zM11 36C11 34.3431458 12.3431458 33 14 33 15.6568542 33 17 34.3431458 17 36 17 37.6568542 15.6568542 39 14 39 12.3431458 39 11 37.6568542 11 36zM37 36C37 32.1340068 33.8659932 29 30 29 26.1340068 29 23 32.1340068 23 36 23 39.8659932 26.1340068 43 30 43 33.8659932 43 37 39.8659932 37 36zM27 36C27 34.3431458 28.3431458 33 30 33 31.6568542 33 33 34.3431458 33 36 33 37.6568542 31.6568542 39 30 39 28.3431458 39 27 37.6568542 27 36z"/><path d="M35.8393549,27 L8.16064507,27 L5.23500135,32.1198765 C4.96300444,32.5958711 4.34411866,32.7680678 3.86010866,32.4914907 L2.13989134,31.5085093 C1.64845207,31.2276869 1.48670651,30.6171347 1.76202879,30.1353208 L3.55364064,27 L2,27 C0.8954305,27 0,26.1045695 0,25 L0,2 C0,0.8954305 0.8954305,0 2,0 L66,0 C67.1045695,0 68,0.8954305 68,2 L68,25 C68,26.1045695 67.1045695,27 66,27 L64,27 L64,30.009222 C64,30.5490248 63.5480902,31 62.9906311,31 L61.0093689,31 C60.4433532,31 60,30.5564136 60,30.009222 L60,27 L40.4463594,27 L42.2379712,30.1353208 C42.5099681,30.6113154 42.3441187,31.2319322 41.8601087,31.5085093 L40.1398913,32.4914907 C39.6484521,32.7723131 39.0403209,32.6016905 38.7649986,32.1198765 L35.8393549,27 L35.8393549,27 Z"/></g><text x="0" y="58" fill="#000000" font-size="5px" font-weight="bold" font-family="'Helvetica Neue', Helvetica, Arial-Unicode, Arial, Sans-serif">Created by Andrejs Kirma</text><text x="0" y="63" fill="#000000" font-size="5px" font-weight="bold" font-family="'Helvetica Neue', Helvetica, Arial-Unicode, Arial, Sans-serif">from the Noun Project</text></svg>