<svg xmlns:dc="http://purl.org/dc/elements/1.1/" xmlns:cc="http://creativecommons.org/ns#" xmlns:rdf="http://www.w3.org/1999/02/22-rdf-syntax-ns#" xmlns:svg="http://www.w3.org/2000/svg" xmlns="http://www.w3.org/2000/svg" xmlns:sodipodi="http://sodipodi.sourceforge.net/DTD/sodipodi-0.dtd" xmlns:inkscape="http://www.inkscape.org/namespaces/inkscape" version="1.1" x="0px" y="0px" viewBox="0 0 32 40" enable-background="new 0 0 32 32" xml:space="preserve"><path style="" d="m 18,25.5 v -2 C 18,23.224 17.776,23 17.5,23 17.224,23 17,23.224 17,23.5 v 2 c 0,0.276 0.224,0.5 0.5,0.5 0.276,0 0.5,-0.224 0.5,-0.5 z" stroke-miterlimit="10" fill="#000000" stroke="none"/><path style="" d="m 18,29.5 v -2 C 18,27.224 17.776,27 17.5,27 17.224,27 17,27.224 17,27.5 v 2 c 0,0.276 0.224,0.5 0.5,0.5 0.276,0 0.5,-0.224 0.5,-0.5 z" stroke-miterlimit="10" fill="#000000" stroke="none"/><path style="" d="m 21.434,24.446 -1,-1.732 c -0.139,-0.239 -0.444,-0.321 -0.684,-0.183 -0.239,0.138 -0.321,0.443 -0.184,0.683 l 1,1.732 c 0.139,0.239 0.444,0.321 0.684,0.183 0.239,-0.138 0.321,-0.443 0.184,-0.683 z" stroke-miterlimit="10" fill="#000000" stroke="none"/><path style="" d="m 23.434,27.91 -1,-1.732 c -0.139,-0.238 -0.444,-0.32 -0.684,-0.183 -0.24,0.137 -0.321,0.444 -0.184,0.683 l 1,1.732 c 0.139,0.239 0.444,0.321 0.684,0.184 0.239,-0.139 0.321,-0.445 0.184,-0.684 z" stroke-miterlimit="10" fill="#000000" stroke="none"/><path style="" d="m 13.567,24.446 1,-1.732 c 0.138,-0.239 0.444,-0.321 0.683,-0.183 0.239,0.138 0.321,0.443 0.183,0.683 l -1,1.732 c -0.138,0.239 -0.444,0.321 -0.683,0.183 -0.239,-0.138 -0.321,-0.443 -0.183,-0.683 z" stroke-miterlimit="10" fill="#000000" stroke="none"/><path style="" d="m 11.567,27.91 1,-1.732 c 0.138,-0.238 0.444,-0.32 0.683,-0.183 0.239,0.137 0.321,0.444 0.183,0.683 l -1,1.732 c -0.138,0.239 -0.444,0.321 -0.683,0.184 -0.239,-0.139 -0.321,-0.445 -0.183,-0.684 z" stroke-miterlimit="10" fill="#000000" stroke="none"/><path style="" d="M 13.5,8 12.036,6.535 8.5,10.071 11.429,13 13.5,13 z" fill="#000000" stroke="none"/><path style="" d="M 15.5,21.5 15.5,19 14,17.5 14,5 l 1,0 0,-3 5,0 0,3 1,0 0,12.5 -1.5,1.5 0,2.5 z" fill="#000000" stroke="none"/><text x="0" y="47" fill="#000000" font-size="5px" font-weight="bold" font-family="'Helvetica Neue', Helvetica, Arial-Unicode, Arial, Sans-serif">Created by Pham Duy Phuong Hung</text><text x="0" y="52" fill="#000000" font-size="5px" font-weight="bold" font-family="'Helvetica Neue', Helvetica, Arial-Unicode, Arial, Sans-serif">from the Noun Project</text></svg>