<svg width="24" height="24" viewBox="0 0 24 24" fill="none" xmlns="http://www.w3.org/2000/svg">
<path d="M8 18C6.67 18 5.79 18.79 5.29 19.29C4.79 19.79 4.67 20 4 20C3.33 20 3.21 19.79 2.71 19.29C2.35 18.93 1.79 18.42 0.999999 18.16V20.41C1.09 20.5 1.18 20.59 1.29 20.71C1.79 21.21 2.67 22 4 22C5.33 22 6.21 21.21 6.71 20.71C7.21 20.21 7.33 20 8 20C8.67 20 8.79 20.21 9.29 20.71C9.73 21.14 10.44 21.8 11.5 21.96C11.66 22 11.83 22 12 22C13.33 22 14.21 21.21 14.71 20.71C15.21 20.21 15.33 20 16 20C16.67 20 16.79 20.21 17.29 20.71C17.79 21.21 18.67 22 20 22C21.33 22 22.21 21.21 22.71 20.71C22.82 20.59 22.91 20.5 23 20.41V18.16C22.21 18.42 21.65 18.93 21.29 19.29C20.79 19.79 20.67 20 20 20C19.33 20 19.21 19.79 18.71 19.29C18.21 18.79 17.33 18 16 18C14.67 18 13.79 18.79 13.29 19.29C12.79 19.79 12.67 20 12 20C11.78 20 11.63 19.97 11.5 19.92C11.22 19.82 11.05 19.63 10.71 19.29C10.21 18.79 9.33 18 8 18ZM22 10.5C22 10.5 24 12.67 24 14C24 15.1 23.1 16 22 16C20.9 16 20 15.1 20 14C20 12.67 22 10.5 22 10.5ZM22.5 7.13L19.24 5.24L12.73 9C12.39 8.4 11.74 8 11 8H9V6H10C10.55 6 11 5.55 11 5C11 4.45 10.55 4 10 4H6C5.45 4 5 4.45 5 5C5 5.55 5.45 6 6 6H7V8H5C3.9 8 3 8.9 3 10V13C3 14.1 3.9 15 5 15H14C14.75 15 15.41 14.58 15.75 13.97L19.4 7.65L21.5 8.86C22 9.14 22.59 8.97 22.87 8.5C23.14 8 23 7.4 22.5 7.13ZM14 13H5V10H11.69L12.6 11.43L16.06 9.43L14 13ZM3.5 6.92L1.79 8.62C1.5987 8.78383 1.35262 8.86943 1.10095 8.85971C0.849269 8.84999 0.61053 8.74566 0.432436 8.56756C0.254341 8.38947 0.150009 8.15073 0.140287 7.89905C0.130566 7.64738 0.216172 7.4013 0.379999 7.21L2.09 5.5C2.27736 5.31375 2.53081 5.20921 2.795 5.20921C3.05918 5.20921 3.31264 5.31375 3.5 5.5C3.89 5.89 3.89 6.5 3.5 6.92Z" fill="black"/>
</svg>
