<svg width="24" height="24" viewBox="0 0 24 24" fill="none" xmlns="http://www.w3.org/2000/svg">
<path fill-rule="evenodd" clip-rule="evenodd" d="M16.4894 17.6262H17.7207C18.0595 17.6262 18.3374 17.9041 18.3374 18.243V21.3844C18.3374 21.7232 18.0595 22 17.7207 22H16.4894C16.1505 22 15.8726 21.7232 15.8726 21.3844V18.243C15.8726 17.9041 16.1505 17.6262 16.4894 17.6262ZM5.6157 2H6.84809C7.18692 2 7.46379 2.2768 7.46379 2.61563V5.75817C7.46379 6.097 7.18692 6.37384 6.84809 6.37384H5.6157C5.2768 6.37384 5 6.09704 5 5.75817V2.61563C5 2.2768 5.2768 2 5.6157 2V2ZM16.4894 2H17.7207C18.0595 2 18.3374 2.2768 18.3374 2.61563V5.75817C18.3374 6.097 18.0595 6.37384 17.7207 6.37384H16.4894C16.1505 6.37384 15.8726 6.09704 15.8726 5.75817V2.61563C15.8726 2.2768 16.1505 2 16.4894 2V2ZM5.6157 17.6262H6.84809C7.18692 17.6262 7.46379 17.9041 7.46379 18.243V21.3844C7.46379 21.7232 7.18692 22 6.84809 22H5.6157C5.2768 22 5 21.7232 5 21.3844V18.243C5 17.9041 5.2768 17.6262 5.6157 17.6262Z" fill="black"/>
<path fill-rule="evenodd" clip-rule="evenodd" d="M16.7441 17.6262H17.7207C18.0595 17.6262 18.3375 17.9041 18.3375 18.243V21.3844C18.3375 21.7232 18.0595 22 17.7207 22H16.7441C17.0829 22 17.3608 21.7232 17.3608 21.3844V18.243C17.3608 17.9041 17.0829 17.6262 16.7441 17.6262ZM5.87147 2H6.84811C7.18694 2 7.46381 2.2768 7.46381 2.61563V5.75817C7.46381 6.097 7.18694 6.37384 6.84811 6.37384H5.87147C6.2103 6.37384 6.48717 6.09704 6.48717 5.75817V2.61563C6.48717 2.2768 6.2103 2 5.87147 2V2ZM16.7441 2H17.7207C18.0595 2 18.3375 2.2768 18.3375 2.61563V5.75817C18.3375 6.097 18.0595 6.37384 17.7207 6.37384H16.7441C17.0829 6.37384 17.3608 6.09704 17.3608 5.75817V2.61563C17.3608 2.2768 17.0829 2 16.7441 2V2ZM5.87147 17.6262H6.84811C7.18694 17.6262 7.46381 17.9041 7.46381 18.243V21.3844C7.46381 21.7232 7.18694 22 6.84811 22H5.87147C6.2103 22 6.48717 21.7232 6.48717 21.3844V18.243C6.48717 17.9041 6.2103 17.6262 5.87147 17.6262Z" fill="black"/>
<path d="M8.98956 19.5208H9.93851C10.1002 19.5208 10.2319 19.6514 10.2319 19.8131C10.2319 19.9748 10.1002 20.1066 9.93851 20.1066H8.98956V20.6148C8.98956 20.7764 8.8578 20.9071 8.69612 20.9071C8.53444 20.9071 8.40385 20.7764 8.40385 20.6148V19.0125C8.40385 18.8509 8.53448 18.7202 8.69612 18.7202C8.8578 18.7202 8.98956 18.8509 8.98956 19.0125V19.5208ZM14.3456 3.38633C14.3456 3.22465 14.4763 3.0929 14.6379 3.0929C14.8007 3.0929 14.9313 3.22465 14.9313 3.38633V4.98751C14.9313 5.14919 14.8007 5.28095 14.6379 5.28095C14.4762 5.28095 14.3456 5.14919 14.3456 4.98751V4.48036H12.9006C12.7389 4.48036 12.6071 4.34856 12.6071 4.18692C12.6071 4.02524 12.7389 3.89458 12.9006 3.89458H14.3456V3.38633ZM8.40608 3.38633C8.40608 3.22465 8.53671 3.0929 8.69835 3.0929C8.86116 3.0929 8.99179 3.22465 8.99179 3.38633V3.89458H10.4369C10.5985 3.89458 10.7291 4.02524 10.7291 4.18692C10.7291 4.3486 10.5985 4.48036 10.4369 4.48036H8.99179V4.98747C8.99179 5.14915 8.86116 5.28091 8.69835 5.28091C8.53667 5.28091 8.40608 5.14915 8.40608 4.98747V3.38633ZM11.3758 5.41935C11.3758 5.25767 11.5065 5.12591 11.6682 5.12591C11.8309 5.12591 11.9616 5.2577 11.9616 5.41935V7.83216C11.9616 7.9938 11.8309 8.1256 11.6682 8.1256C11.5065 8.1256 11.3758 7.9938 11.3758 7.83216V5.41935ZM11.3758 10.6934C11.3758 10.5317 11.5065 10.4011 11.6682 10.4011C11.8309 10.4011 11.9616 10.5318 11.9616 10.6934V11.866C11.9616 12.0277 11.8309 12.1583 11.6682 12.1583C11.5065 12.1583 11.3758 12.0277 11.3758 11.866V10.6934ZM11.3758 14.7273C11.3758 14.5645 11.5065 14.4339 11.6682 14.4339C11.8309 14.4339 11.9616 14.5645 11.9616 14.7273V16.6805C11.9616 16.8422 11.8309 16.9729 11.6682 16.9729C11.5065 16.9729 11.3758 16.8422 11.3758 16.6805V14.7273ZM14.3434 19.0126C14.3434 18.8509 14.4741 18.7203 14.6357 18.7203C14.7974 18.7203 14.9292 18.8509 14.9292 19.0126V20.6148C14.9292 20.7765 14.7974 20.9071 14.6357 20.9071C14.474 20.9071 14.3434 20.7765 14.3434 20.6148V20.1066H13.3989C13.2372 20.1066 13.1054 19.9748 13.1054 19.8132C13.1054 19.6515 13.2372 19.5208 13.3989 19.5208H14.3434V19.0126Z" fill="black"/>
<path d="M5 18.4257H5.47059C5.63227 18.4257 5.76293 18.5563 5.76293 18.718C5.76293 18.8797 5.63223 19.0115 5.47059 19.0115H5V18.4257ZM5 2.79834H5.47059C5.63227 2.79834 5.76293 2.9301 5.76293 3.09178C5.76293 3.25346 5.63223 3.38408 5.47059 3.38408H5V2.79834ZM5 4.98967H5.47059C5.63227 4.98967 5.76293 5.12034 5.76293 5.28198C5.76293 5.44366 5.63223 5.57542 5.47059 5.57542H5V4.98967ZM6.99426 5.57545C6.83258 5.57545 6.70082 5.4437 6.70082 5.28202C6.70082 5.12034 6.83258 4.98971 6.99426 4.98971H7.46379V5.57549H6.99426V5.57545ZM5 3.89455H5.47059C5.63227 3.89455 5.76293 4.02522 5.76293 4.1869C5.76293 4.34858 5.63223 4.48034 5.47059 4.48034H5V3.89455ZM6.99426 4.48034C6.83258 4.48034 6.70082 4.34854 6.70082 4.1869C6.70082 4.02522 6.83258 3.89455 6.99426 3.89455H7.46379V4.48034H6.99426ZM6.99426 3.38408C6.83258 3.38408 6.70082 3.25342 6.70082 3.09178C6.70082 2.93014 6.83258 2.79834 6.99426 2.79834H7.46379V3.38408H6.99426ZM15.8726 2.79834H16.3432C16.5049 2.79834 16.6366 2.9301 16.6366 3.09178C16.6366 3.25346 16.5049 3.38408 16.3432 3.38408H15.8726V2.79834ZM15.8726 4.98967H16.3432C16.5049 4.98967 16.6366 5.12034 16.6366 5.28198C16.6366 5.44366 16.5049 5.57542 16.3432 5.57542H15.8726V4.98967ZM17.8669 5.57545C17.7052 5.57545 17.5734 5.4437 17.5734 5.28202C17.5734 5.12034 17.7052 4.98971 17.8669 4.98971H18.3374V5.57549H17.8669V5.57545ZM15.8726 3.89455H16.3432C16.5049 3.89455 16.6366 4.02522 16.6366 4.1869C16.6366 4.34858 16.5049 4.48034 16.3432 4.48034H15.8726V3.89455ZM17.8669 4.48034C17.7052 4.48034 17.5734 4.34854 17.5734 4.1869C17.5734 4.02522 17.7052 3.89455 17.8669 3.89455H18.3374V4.48034H17.8669ZM17.8669 3.38408C17.7052 3.38408 17.5734 3.25342 17.5734 3.09178C17.5734 2.93014 17.7052 2.79834 17.8669 2.79834H18.3374V3.38408H17.8669ZM15.8726 18.4257H16.3432C16.5049 18.4257 16.6366 18.5563 16.6366 18.718C16.6366 18.8797 16.5049 19.0115 16.3432 19.0115H15.8726V18.4257ZM15.8726 20.6159H16.3432C16.5049 20.6159 16.6366 20.7466 16.6366 20.9094C16.6366 21.071 16.5049 21.2017 16.3432 21.2017H15.8726V20.6159ZM17.8669 21.2017C17.7052 21.2017 17.5734 21.071 17.5734 20.9094C17.5734 20.7466 17.7052 20.6159 17.8669 20.6159H18.3374V21.2017H17.8669ZM15.8726 19.5208H16.3432C16.5049 19.5208 16.6366 19.6514 16.6366 19.8131C16.6366 19.9748 16.5049 20.1065 16.3432 20.1065H15.8726V19.5208ZM17.8669 20.1065C17.7052 20.1065 17.5734 19.9747 17.5734 19.8131C17.5734 19.6514 17.7052 19.5208 17.8669 19.5208H18.3374V20.1065H17.8669ZM17.8669 19.0114C17.7052 19.0114 17.5734 18.8797 17.5734 18.718C17.5734 18.5563 17.7052 18.4256 17.8669 18.4256H18.3374V19.0114H17.8669ZM5 20.6159H5.47059C5.63227 20.6159 5.76293 20.7466 5.76293 20.9094C5.76293 21.071 5.63223 21.2017 5.47059 21.2017H5V20.6159ZM6.99426 21.2017C6.83258 21.2017 6.70082 21.071 6.70082 20.9094C6.70082 20.7466 6.83258 20.6159 6.99426 20.6159H7.46379V21.2017H6.99426ZM5 19.5208H5.47059C5.63227 19.5208 5.76293 19.6514 5.76293 19.8131C5.76293 19.9748 5.63223 20.1065 5.47059 20.1065H5V19.5208ZM6.99426 20.1065C6.83258 20.1065 6.70082 19.9747 6.70082 19.8131C6.70082 19.6514 6.83258 19.5208 6.99426 19.5208H7.46379V20.1065H6.99426ZM6.99426 19.0114C6.83258 19.0114 6.70082 18.8797 6.70082 18.718C6.70082 18.5563 6.83258 18.4256 6.99426 18.4256H7.46379V19.0114H6.99426Z" fill="black"/>
<path fill-rule="evenodd" clip-rule="evenodd" d="M10.3726 21.2515H12.9637C13.2029 21.2515 13.3989 21.0555 13.3989 20.8163V17.1146C13.3989 16.8754 13.2029 16.6805 12.9637 16.6805H10.3726C10.1345 16.6805 9.93854 16.8754 9.93854 17.1146V20.8163C9.93854 21.0555 10.1346 21.2515 10.3726 21.2515Z" fill="black"/>
<path fill-rule="evenodd" clip-rule="evenodd" d="M11.9871 21.2515H12.9636C13.2029 21.2515 13.3989 21.0555 13.3989 20.8163V17.1146C13.3989 16.8754 13.2029 16.6805 12.9636 16.6805H11.9871C12.2262 16.6805 12.4222 16.8754 12.4222 17.1146V20.8163C12.4222 21.0555 12.2262 21.2515 11.9871 21.2515Z" fill="black"/>
<path d="M11.6084 17.8333C11.708 17.7071 11.8918 17.6849 12.018 17.7846C12.1442 17.8854 12.1664 18.068 12.0657 18.1943L11.6991 18.6593L12.2195 18.8886C12.3679 18.9539 12.4344 19.1267 12.3691 19.275C12.3557 19.3049 12.338 19.3326 12.3159 19.3558L11.7291 20.0977C11.6294 20.2239 11.4455 20.2461 11.3194 20.1465C11.1931 20.0457 11.171 19.863 11.2706 19.7367L11.6383 19.2717L11.1179 19.0425V19.0414C11.0957 19.0314 11.0746 19.0192 11.0547 19.0037C10.9286 18.9029 10.9063 18.7202 11.0071 18.594L11.6084 17.8333Z" fill="black"/>
<path fill-rule="evenodd" clip-rule="evenodd" d="M11.6682 5.41938C12.3469 5.41938 12.9006 4.86574 12.9006 4.18695C12.9006 3.50816 12.3469 2.95453 11.6682 2.95453C10.9904 2.95453 10.4369 3.50816 10.4369 4.18695C10.4369 4.8657 10.9905 5.41938 11.6682 5.41938Z" fill="black"/>
<path fill-rule="evenodd" clip-rule="evenodd" d="M11.6682 2.95453C12.3491 2.95453 12.9006 3.50707 12.9006 4.18695C12.9006 4.86793 12.3491 5.41938 11.6682 5.41938C11.4954 5.41938 11.3304 5.38281 11.1798 5.3186C11.6184 5.12926 11.9239 4.6941 11.9239 4.18695C11.9239 3.6798 11.6184 3.24465 11.1798 3.05527C11.3304 2.99105 11.4954 2.95453 11.6682 2.95453Z" fill="black"/>
<path fill-rule="evenodd" clip-rule="evenodd" d="M9.01728 7.83221H14.3202C14.6424 7.83221 14.9059 8.09573 14.9059 8.418V10.1077C14.9059 10.43 14.6424 10.6935 14.3202 10.6935H9.01728C8.69509 10.6935 8.43157 10.4299 8.43157 10.1077V8.418C8.43157 8.09573 8.69509 7.83221 9.01728 7.83221ZM9.01728 11.8661H14.3202C14.6424 11.8661 14.9059 12.1297 14.9059 12.4519V14.1405C14.9059 14.4627 14.6424 14.7274 14.3202 14.7274H9.01728C8.69509 14.7274 8.43157 14.4627 8.43157 14.1405V12.4519C8.43157 12.1296 8.69509 11.8661 9.01728 11.8661Z" fill="black"/>
<path fill-rule="evenodd" clip-rule="evenodd" d="M13.3435 7.83221H14.3202C14.6423 7.83221 14.9059 8.09573 14.9059 8.418V10.1077C14.9059 10.43 14.6423 10.6935 14.3202 10.6935H13.3435C13.6657 10.6935 13.9293 10.4299 13.9293 10.1077V8.418C13.9293 8.09573 13.6657 7.83221 13.3435 7.83221ZM13.3435 11.8661H14.3202C14.6423 11.8661 14.9059 12.1297 14.9059 12.4519V14.1405C14.9059 14.4627 14.6423 14.7274 14.3202 14.7274H13.3435C13.6657 14.7274 13.9293 14.4627 13.9293 14.1405V12.4519C13.9293 12.1296 13.6657 11.8661 13.3435 11.8661Z" fill="black"/>
<path d="M9.23098 12.9113C9.23098 12.7497 9.36273 12.6179 9.52441 12.6179C9.68609 12.6179 9.81785 12.7497 9.81785 12.9113V13.6809C9.81785 13.8426 9.68609 13.9743 9.52441 13.9743C9.36273 13.9743 9.23098 13.8426 9.23098 13.6809V12.9113ZM9.23098 8.87852C9.23098 8.71575 9.36273 8.58508 9.52441 8.58508C9.68609 8.58508 9.81785 8.71575 9.81785 8.87852V9.64809C9.81785 9.80977 9.68609 9.94044 9.52441 9.94044C9.36273 9.94044 9.23098 9.80973 9.23098 9.64809V8.87852ZM13.5196 8.87852C13.5196 8.71575 13.6514 8.58508 13.8131 8.58508C13.9747 8.58508 14.1054 8.71575 14.1054 8.87852V9.64809C14.1054 9.80977 13.9747 9.94044 13.8131 9.94044C13.6514 9.94044 13.5196 9.80973 13.5196 9.64809V8.87852ZM12.4477 8.87852C12.4477 8.71575 12.5784 8.58508 12.7411 8.58508C12.9028 8.58508 13.0334 8.71575 13.0334 8.87852V9.64809C13.0334 9.80977 12.9027 9.94044 12.7411 9.94044C12.5784 9.94044 12.4477 9.80973 12.4477 9.64809V8.87852ZM11.3758 8.87852C11.3758 8.71575 11.5065 8.58508 11.6682 8.58508C11.8309 8.58508 11.9616 8.71575 11.9616 8.87852V9.64809C11.9616 9.80977 11.8309 9.94044 11.6682 9.94044C11.5065 9.94044 11.3758 9.80973 11.3758 9.64809V8.87852ZM10.3039 8.87852C10.3039 8.71575 10.4347 8.58508 10.5963 8.58508C10.758 8.58508 10.8897 8.71575 10.8897 8.87852V9.64809C10.8897 9.80977 10.758 9.94044 10.5963 9.94044C10.4346 9.94044 10.3039 9.80973 10.3039 9.64809V8.87852ZM13.5196 12.9113C13.5196 12.7497 13.6514 12.6179 13.8131 12.6179C13.9747 12.6179 14.1054 12.7497 14.1054 12.9113V13.6809C14.1054 13.8426 13.9747 13.9743 13.8131 13.9743C13.6514 13.9743 13.5196 13.8426 13.5196 13.6809V12.9113ZM12.4477 12.9113C12.4477 12.7497 12.5784 12.6179 12.7411 12.6179C12.9028 12.6179 13.0334 12.7497 13.0334 12.9113V13.6809C13.0334 13.8426 12.9027 13.9743 12.7411 13.9743C12.5784 13.9743 12.4477 13.8426 12.4477 13.6809V12.9113ZM11.3758 12.9113C11.3758 12.7497 11.5065 12.6179 11.6682 12.6179C11.8309 12.6179 11.9616 12.7497 11.9616 12.9113V13.6809C11.9616 13.8426 11.8309 13.9743 11.6682 13.9743C11.5065 13.9743 11.3758 13.8426 11.3758 13.6809V12.9113ZM10.3039 12.9113C10.3039 12.7497 10.4347 12.6179 10.5963 12.6179C10.758 12.6179 10.8897 12.7497 10.8897 12.9113V13.6809C10.8897 13.8426 10.758 13.9743 10.5963 13.9743C10.4346 13.9743 10.3039 13.8426 10.3039 13.6809V12.9113Z" fill="black"/>
</svg>
