<svg width="24" height="24" viewBox="0 0 24 24" fill="none" xmlns="http://www.w3.org/2000/svg">
<path d="M21.9665 10.2096H20.4123C20.4671 10.0718 20.4975 9.92171 20.4975 9.7646C20.4975 9.32747 20.2644 8.9438 19.9161 8.7311C20.2644 8.51843 20.4975 8.13473 20.4975 7.69763C20.4975 7.26054 20.2644 6.87684 19.9161 6.66417C20.2644 6.45151 20.4975 6.0678 20.4975 5.63067C20.4975 4.99095 19.9983 4.46591 19.369 4.42373V4.41028H17.0078V4.42373C16.3786 4.46587 15.8794 4.99091 15.8794 5.63067C15.8794 6.0678 16.1124 6.45147 16.4608 6.66417C16.1124 6.87684 15.8794 7.26054 15.8794 7.69763C15.8794 8.13473 16.1124 8.51843 16.4608 8.7311C16.1124 8.94376 15.8794 9.32747 15.8794 9.7646C15.8794 9.92171 15.9098 10.0718 15.9646 10.2096H14.5556V13.7715H21.9665V10.2096Z" fill="black"/>
<path d="M11.8417 8.69305H13.3753V15.307H11.8417V8.69305Z" fill="black"/>
<path d="M17.0078 2.06482H19.369V3.23343H17.0078V2.06482Z" fill="black"/>
<path d="M3.55624 2C2.69829 2 2 2.69829 2 3.55624V5.14464L3.51936 3.64568L4.34593 4.48323L2 6.79738V8.68824L3.52014 7.1936L4.34514 8.03272L2 10.3386V12.2358L3.52014 10.7419L4.34514 11.5814L2 13.8858V15.7841L3.52014 14.2906L4.34514 15.1301L2 17.4345V19.3324L3.52054 17.8389L4.34514 18.6784L2.07179 20.9114C2.27068 21.5418 2.86109 22 3.55624 22H5.75584V2H3.55624Z" fill="black"/>
<path d="M9.16803 14.2906L10.6648 15.7627V13.8667L8.34265 11.581L9.16843 10.7423L10.6648 12.2151V10.316L8.34304 8.03268L9.16803 7.19356L10.6648 8.66525V6.76372L8.34343 4.48441L9.16764 3.6445L10.6882 5.1373V3.55624C10.6882 2.69829 9.99029 2 9.13194 2H6.93274V22H9.13194C9.82513 22 10.414 21.5445 10.6144 20.9173L8.34265 18.678L9.16843 17.8397L10.6882 19.3375V17.436L8.34304 15.1297L9.16803 14.2906Z" fill="black"/>
</svg>
