<svg width="24" height="24" viewBox="0 0 24 24" fill="none" xmlns="http://www.w3.org/2000/svg">
<path d="M11.5 2.01228C6.20944 2.2728 2 6.64482 2 12C2 17.3552 6.20944 21.7272 11.5 21.9877V18.9824C7.86736 18.726 5 15.6979 5 12C5 8.30213 7.86736 5.27396 11.5 5.01758V2.01228Z" fill="black"/>
<path fill-rule="evenodd" clip-rule="evenodd" d="M11.5 6.02054C8.42023 6.27461 6 8.85467 6 12C6 15.1453 8.42023 17.7254 11.5 17.9795V16.8662C11.2011 16.6933 11 16.3701 11 16C11 15.6299 11.2011 15.3067 11.5 15.1338V8.86622C11.2011 8.69332 11 8.37014 11 8C11 7.62986 11.2011 7.30669 11.5 7.13378V6.02054ZM8 13C8.55229 13 9 12.5523 9 12C9 11.4477 8.55229 11 8 11C7.44772 11 7 11.4477 7 12C7 12.5523 7.44772 13 8 13ZM9.8787 9.87868C10.2692 9.48816 10.2692 8.85499 9.8787 8.46447C9.48818 8.07394 8.85501 8.07394 8.46449 8.46447C8.07397 8.85499 8.07397 9.48816 8.46449 9.87868C8.85501 10.2692 9.48818 10.2692 9.8787 9.87868ZM9.8787 15.5355C10.2692 15.145 10.2692 14.5118 9.8787 14.1213C9.48818 13.7308 8.85501 13.7308 8.46449 14.1213C8.07397 14.5118 8.07397 15.145 8.46449 15.5355C8.85501 15.9261 9.48818 15.9261 9.8787 15.5355Z" fill="black"/>
<path fill-rule="evenodd" clip-rule="evenodd" d="M12.5 21.9332C17.1473 21.3774 20.75 17.4219 20.75 12.625H17.8203C17.4965 12.625 17.2344 12.3629 17.2344 12.0391C17.2344 9.31309 15.1556 7.06379 12.5 6.79297V8.07395C14.5431 8.57914 16.0625 10.428 16.0625 12.625C16.0625 14.822 14.5431 16.6709 12.5 17.1761V21.9332ZM15.5182 17.5968C15.747 17.8256 16.118 17.8256 16.3468 17.5968C16.5757 17.368 16.5757 16.997 16.3468 16.7682C16.118 16.5393 15.747 16.5393 15.5182 16.7682C15.2893 16.997 15.2893 17.368 15.5182 17.5968Z" fill="black"/>
<path d="M12.5 15.9561C13.8885 15.4859 14.8906 14.1704 14.8906 12.625C14.8906 11.0796 13.8885 9.76406 12.5 9.29391V10.5692C13.2258 10.9679 13.7188 11.7398 13.7188 12.625C13.7188 13.5102 13.2258 14.2821 12.5 14.6808V15.9561Z" fill="black"/>
<path d="M13.1929 2.00422C17.701 2.56149 21.428 6.29786 21.9956 10.8058C22.039 11.1503 21.7542 11.4531 21.407 11.4531H18.3828C18.1016 8.3711 15.6289 5.89844 12.5469 5.61712V2.59301C12.5469 2.24641 12.8489 1.96168 13.1929 2.00422Z" fill="black"/>
</svg>
