<svg width="24" height="24" viewBox="0 0 24 24" fill="none" xmlns="http://www.w3.org/2000/svg">
<path fill-rule="evenodd" clip-rule="evenodd" d="M12 18C15.3137 18 18 15.3137 18 12C18 8.68629 15.3137 6 12 6C8.68629 6 6 8.68629 6 12C6 15.3137 8.68629 18 12 18ZM12 9C12.5523 9 13 8.55229 13 8C13 7.44772 12.5523 7 12 7C11.4477 7 11 7.44772 11 8C11 8.55229 11.4477 9 12 9ZM13 16C13 16.5523 12.5523 17 12 17C11.4477 17 11 16.5523 11 16C11 15.4477 11.4477 15 12 15C12.5523 15 13 15.4477 13 16ZM8 13C8.55229 13 9 12.5523 9 12C9 11.4477 8.55229 11 8 11C7.44772 11 7 11.4477 7 12C7 12.5523 7.44772 13 8 13ZM17 12C17 12.5523 16.5523 13 16 13C15.4477 13 15 12.5523 15 12C15 11.4477 15.4477 11 16 11C16.5523 11 17 11.4477 17 12ZM9.8787 9.87868C10.2692 9.48816 10.2692 8.85499 9.8787 8.46447C9.48818 8.07394 8.85501 8.07394 8.46449 8.46447C8.07397 8.85499 8.07397 9.48816 8.46449 9.87868C8.85501 10.2692 9.48818 10.2692 9.8787 9.87868ZM15.5356 14.1213C15.9261 14.5118 15.9261 15.145 15.5356 15.5355C15.145 15.9261 14.5119 15.9261 14.1213 15.5355C13.7308 15.145 13.7308 14.5118 14.1213 14.1213C14.5119 13.7308 15.145 13.7308 15.5356 14.1213ZM9.8787 15.5355C10.2692 15.145 10.2692 14.5118 9.8787 14.1213C9.48818 13.7308 8.85501 13.7308 8.46449 14.1213C8.07397 14.5118 8.07397 15.145 8.46449 15.5355C8.85501 15.9261 9.48818 15.9261 9.8787 15.5355ZM15.5356 8.46447C15.9261 8.85499 15.9261 9.48816 15.5356 9.87868C15.145 10.2692 14.5119 10.2692 14.1213 9.87868C13.7308 9.48816 13.7308 8.85499 14.1213 8.46447C14.5119 8.07394 15.145 8.07394 15.5356 8.46447Z" fill="black"/>
<path fill-rule="evenodd" clip-rule="evenodd" d="M22 12C22 17.5228 17.5228 22 12 22C6.47715 22 2 17.5228 2 12C2 6.47715 6.47715 2 12 2C17.5228 2 22 6.47715 22 12ZM19 12C19 15.866 15.866 19 12 19C8.13401 19 5 15.866 5 12C5 8.13401 8.13401 5 12 5C15.866 5 19 8.13401 19 12Z" fill="black"/>
</svg>
